<?xml version="1.0" encoding="UTF-8"?>
<svg xmlns="http://www.w3.org/2000/svg" xmlns:xlink="http://www.w3.org/1999/xlink" viewBox="0 0 16 16" width="16px" height="16px">
<g id="surface179953422">
<path style=" stroke:none;fill-rule:nonzero;fill:rgb(41.568628%,81.960785%,87.450981%);fill-opacity:1;" d="M 6.296875 10.667969 L 7 10.667969 L 7 13.332031 C 7 13.699219 6.699219 14 6.332031 14 L 5 14 C 4.632812 14 4.332031 13.699219 4.332031 13.332031 L 4.332031 10.667969 L 1.628906 10.667969 C 1.125 10.667969 0.804688 10.121094 1.046875 9.675781 L 5.082031 2.386719 C 5.335938 1.929688 5.996094 1.929688 6.25 2.386719 L 7.867188 5.632812 L 5.714844 9.675781 C 5.46875 10.121094 5.789062 10.667969 6.296875 10.667969 Z M 6.296875 10.667969 "/>
<path style=" stroke:none;fill-rule:nonzero;fill:rgb(14.901961%,65.098041%,60.392159%);fill-opacity:1;" d="M 14.371094 10.667969 L 11.667969 10.667969 L 11.667969 13.332031 C 11.667969 13.699219 11.367188 14 11 14 L 9.667969 14 C 9.300781 14 9 13.699219 9 13.332031 L 9 10.667969 L 9.703125 10.667969 C 10.210938 10.667969 10.53125 10.121094 10.285156 9.675781 L 8.101562 5.632812 L 9.75 2.386719 C 10.003906 1.929688 10.664062 1.929688 10.917969 2.386719 L 14.953125 9.675781 C 15.195312 10.121094 14.875 10.667969 14.371094 10.667969 Z M 14.371094 10.667969 "/>
</g>
</svg>
