<svg width="16" height="16" viewBox="0 0 16 16" fill="none" xmlns="http://www.w3.org/2000/svg">
<g clip-path="url(#clip0_10_976)">
<path d="M14.06 3.713C14.18 2.642 13.967 1.881 13.358 1.187C12.628 0.356 11.312 0 9.626 0H4.734C4.56746 7.21157e-05 4.40641 0.0595142 4.27976 0.167651C4.15311 0.275788 4.06917 0.425535 4.043 0.59L2.005 13.509C1.99545 13.569 1.99903 13.6304 2.0155 13.6888C2.03197 13.7473 2.06093 13.8015 2.10038 13.8477C2.13983 13.8939 2.18884 13.931 2.24402 13.9565C2.2992 13.9819 2.35924 13.995 2.42 13.995H5.176L4.974 15.275C4.95984 15.3646 4.96527 15.4562 4.98991 15.5436C5.01455 15.6309 5.05783 15.7118 5.11675 15.7808C5.17567 15.8498 5.24884 15.9052 5.33123 15.9432C5.41362 15.9813 5.50326 16.001 5.594 16.001H8.14C8.569 16.001 8.933 15.691 9.002 15.27L9.027 15.14L9.507 12.097L9.537 11.933L9.538 11.926C9.55091 11.8431 9.59311 11.7675 9.65696 11.713C9.72081 11.6585 9.80206 11.6287 9.886 11.629H10.266C11.532 11.629 12.691 11.373 13.611 10.719C13.99 10.449 14.323 10.116 14.604 9.714C15.0706 9.06433 15.3726 8.3111 15.484 7.519C15.726 6.273 15.614 5.163 14.914 4.365C14.6982 4.12421 14.4408 3.92434 14.154 3.775L14.06 3.714V3.713ZM6.543 8.82C6.64209 8.76823 6.7522 8.74113 6.864 8.741H8.3C11.12 8.741 13.327 7.597 13.972 4.285L13.975 4.269C14.192 4.393 14.375 4.539 14.523 4.707C15.069 5.33 15.202 6.242 14.973 7.417C14.701 8.814 14.107 9.724 13.31 10.291C12.508 10.861 11.468 11.106 10.267 11.106H9.887C9.67936 11.1057 9.47843 11.1795 9.32026 11.314C9.1621 11.4485 9.05706 11.635 9.024 11.84L8.994 12.004L8.514 15.047L8.49 15.177L8.489 15.181C8.47568 15.2637 8.43332 15.3389 8.36954 15.3931C8.30576 15.4474 8.22473 15.4771 8.141 15.477H5.595C5.57961 15.4771 5.56439 15.4738 5.5504 15.4673C5.53642 15.4609 5.524 15.4515 5.514 15.4398C5.50401 15.4281 5.49669 15.4144 5.49254 15.3996C5.4884 15.3847 5.48753 15.3692 5.49 15.354L5.698 14.034L6.543 8.82Z" fill="#6AD1DF"/>
</g>
<defs>
<clipPath id="clip0_10_976">
<rect width="16" height="16" fill="white"/>
</clipPath>
</defs>
</svg>
