<svg width="16" height="16" viewBox="0 0 16 16" fill="none" xmlns="http://www.w3.org/2000/svg">
<g clip-path="url(#clip0_10_652)">
<path fill-rule="evenodd" clip-rule="evenodd" d="M15.964 0.685806C16.0004 0.594942 16.0093 0.495402 15.9896 0.399526C15.9699 0.303649 15.9226 0.215653 15.8534 0.146447C15.7842 0.0772403 15.6962 0.0298668 15.6003 0.0101994C15.5044 -0.0094681 15.4049 -0.000564594 15.314 0.0358061L0.767002 5.85481H0.766002L0.314002 6.03481C0.228392 6.06895 0.153888 6.1261 0.0987177 6.19994C0.0435479 6.27377 0.00986008 6.36142 0.00137554 6.4532C-0.007109 6.54497 0.00993993 6.63731 0.0506391 6.72001C0.0913382 6.8027 0.154104 6.87254 0.232002 6.92181L0.642002 7.18181L0.643002 7.18381L5.638 10.3618L8.816 15.3568L8.818 15.3588L9.078 15.7688C9.12743 15.8464 9.1973 15.9089 9.27994 15.9493C9.36257 15.9897 9.45476 16.0066 9.54636 15.998C9.63796 15.9894 9.72542 15.9558 9.7991 15.9007C9.87279 15.8456 9.92985 15.7712 9.964 15.6858L15.964 0.685806ZM14.131 2.57581L14.602 1.39781L13.424 1.86881L5.93 9.36281L6.268 9.57781C6.33003 9.6172 6.38261 9.66978 6.422 9.73181L6.637 10.0698L14.131 2.57581Z" fill="#6AD1DF"/>
</g>
<defs>
<clipPath id="clip0_10_652">
<rect width="16" height="16" fill="white"/>
</clipPath>
</defs>
</svg>
