<svg width="16" height="16" viewBox="0 0 16 16" fill="none" xmlns="http://www.w3.org/2000/svg">
<path fill-rule="evenodd" clip-rule="evenodd" d="M13.854 2.14592C13.9006 2.19236 13.9375 2.24754 13.9627 2.30828C13.9879 2.36903 14.0009 2.43415 14.0009 2.49992C14.0009 2.56568 13.9879 2.63081 13.9627 2.69155C13.9375 2.7523 13.9006 2.80747 13.854 2.85392L2.85401 13.8539C2.76012 13.9478 2.63278 14.0005 2.50001 14.0005C2.36723 14.0005 2.2399 13.9478 2.14601 13.8539C2.05212 13.76 1.99938 13.6327 1.99938 13.4999C1.99938 13.3671 2.05212 13.2398 2.14601 13.1459L13.146 2.14592C13.1925 2.09935 13.2476 2.06241 13.3084 2.0372C13.3691 2.012 13.4342 1.99902 13.5 1.99902C13.5658 1.99902 13.6309 2.012 13.6916 2.0372C13.7524 2.06241 13.8076 2.09935 13.854 2.14592Z" fill="#6AD1DF"/>
<path fill-rule="evenodd" clip-rule="evenodd" d="M2.14601 2.14592C2.09945 2.19236 2.0625 2.24754 2.0373 2.30828C2.01209 2.36903 1.99911 2.43415 1.99911 2.49992C1.99911 2.56568 2.01209 2.63081 2.0373 2.69155C2.0625 2.7523 2.09945 2.80747 2.14601 2.85392L13.146 13.8539C13.2399 13.9478 13.3672 14.0005 13.5 14.0005C13.6328 14.0005 13.7601 13.9478 13.854 13.8539C13.9479 13.76 14.0006 13.6327 14.0006 13.4999C14.0006 13.3671 13.9479 13.2398 13.854 13.1459L2.85401 2.14592C2.80756 2.09935 2.75239 2.06241 2.69164 2.0372C2.6309 2.012 2.56578 1.99902 2.50001 1.99902C2.43424 1.99902 2.36912 2.012 2.30838 2.0372C2.24763 2.06241 2.19245 2.09935 2.14601 2.14592Z" fill="#6AD1DF"/>
</svg>
